HIERARCHY
ROOT Hips
{
	OFFSET 0.000000 0.000000 0.000000
	CHANNELS 6 Xposition Yposition Zposition Zrotation Yrotation Xrotation 
	JOINT LowerBack
	{
		OFFSET 0.000000 0.000000 0.000000
		CHANNELS 3 Zrotation Yrotation Xrotation
		JOINT Spine
		{
			OFFSET 0.028270 2.035590 -0.193380
			CHANNELS 3 Zrotation Yrotation Xrotation
			JOINT Spine1
			{
				OFFSET 0.056720 2.048850 -0.042750
				CHANNELS 3 Zrotation Yrotation Xrotation
				JOINT Neck
				{
					OFFSET 0.000000 0.000000 0.000000
					CHANNELS 3 Zrotation Yrotation Xrotation
					JOINT Neck1
					{
						OFFSET -0.054170 1.746240 0.172020
						CHANNELS 3 Zrotation Yrotation Xrotation
						JOINT Head
						{
							OFFSET 0.104070 1.761360 -0.123970
							CHANNELS 3 Zrotation Yrotation Xrotation
							End Site
							{
								OFFSET 0.000000 0.000000 0.000000
							}
						}
					}
				}
				JOINT LeftShoulder
				{
					OFFSET 0.000000 0.000000 0.000000
					CHANNELS 3 Zrotation Yrotation Xrotation
					JOINT LeftArm
					{
						OFFSET 3.362410 1.200890 -0.311210
						CHANNELS 3 Zrotation Yrotation Xrotation
						JOINT LeftForeArm
						{
							OFFSET 4.983000 -0.000000 -0.000000
							CHANNELS 3 Zrotation Yrotation Xrotation
							JOINT LeftHand
							{
								OFFSET 3.483560 -0.000000 -0.000000
								CHANNELS 3 Zrotation Yrotation Xrotation
								JOINT LeftFingerBase
								{
									OFFSET 0.000000 0.000000 0.000000
									CHANNELS 3 Zrotation Yrotation Xrotation
									JOINT LeftHandIndex1
									{
										OFFSET 0.715260 -0.000000 -0.000000
										CHANNELS 3 Zrotation Yrotation Xrotation
										End Site
										{
											OFFSET 0.000000 0.000000 0.000000
										}
									}
								}
								JOINT LThumb
								{
									OFFSET 0.000000 0.000000 0.000000
									CHANNELS 3 Zrotation Yrotation Xrotation
									End Site
									{
										OFFSET 0.000000 0.000000 0.000000
									}
								}
							}
						}
					}
				}
				JOINT RightShoulder
				{
					OFFSET 0.000000 0.000000 0.000000
					CHANNELS 3 Zrotation Yrotation Xrotation
					JOINT RightArm
					{
						OFFSET -3.136600 1.374050 -0.404650
						CHANNELS 3 Zrotation Yrotation Xrotation
						JOINT RightForeArm
						{
							OFFSET -5.241900 -0.000000 -0.000000
							CHANNELS 3 Zrotation Yrotation Xrotation
							JOINT RightHand
							{
								OFFSET -3.444170 -0.000000 -0.000000
								CHANNELS 3 Zrotation Yrotation Xrotation
								JOINT RightFingerBase
								{
									OFFSET 0.000000 0.000000 0.000000
									CHANNELS 3 Zrotation Yrotation Xrotation
									JOINT RightHandIndex1
									{
										OFFSET -0.622530 -0.000000 -0.000000
										CHANNELS 3 Zrotation Yrotation Xrotation
										End Site
										{
											OFFSET 0.000000 0.000000 0.000000
										}
									}
								}
								JOINT RThumb
								{
									OFFSET 0.000000 0.000000 0.000000
									CHANNELS 3 Zrotation Yrotation Xrotation
									End Site
									{
										OFFSET 0.000000 0.000000 0.000000
									}
								}
							}
						}
					}
				}
			}
		}
	}
}
}
MOTION
Frames: 18
Frame Time: 0.008333
-3.022353 16.725305 -1.908434 16.660438 74.150855 36.130324 -6.048472 -1.251067 -5.935727 -1.770954 -0.987994 -3.998548 -5.711310 -1.112919 0.411672 13.261301 -9.157918 -7.267319 -2.339929 -0.186799 0.118008 0.000000 0.000000 0.000000 -3.793757 13.866280 1.280239 -66.686091 21.542500 -4.595900 -0.729933 -77.087632 -0.020262 13.523086 1.876829 0.219071 -0.211127 0.073531 0.000000 0.000000 0.000000 0.000000 0.000000 0.000000 0.000000 12.281829 -2.808315 -0.267472 65.900508 16.039760 29.908280 -0.002475 88.199171 0.049628 8.459640 4.869389 0.395840 -0.115738 -0.398519 -0.000000 0.000000 0.000000 0.000000 0.000000 0.000000 0.000000 
-2.890889 16.703841 -1.884153 17.331885 73.564805 36.768428 -6.378705 -1.292761 -5.927217 -1.860930 -1.001341 -4.009550 -5.855863 -1.127045 0.369945 13.254471 -8.813414 -7.123496 -2.423233 -0.194726 0.151751 0.000000 0.000000 0.000000 -4.260578 13.999508 1.327306 -65.850717 20.628949 -4.484898 -0.804125 -75.731284 -0.020313 14.374481 2.155494 0.269556 -0.216280 0.064386 0.000000 0.000000 0.000000 0.000000 0.000000 0.000000 0.000000 12.590302 -2.511789 -0.449863 67.047434 15.744780 28.240380 0.131875 86.497488 0.046607 7.923417 4.950422 0.376152 -0.104870 -0.396075 -0.000000 0.000000 0.000000 0.000000 0.000000 0.000000 0.000000 
-2.765599 16.696825 -1.859998 17.716215 72.896778 37.128321 -6.649583 -1.301197 -5.908254 -1.941901 -0.985114 -4.016930 -6.000248 -1.110877 0.334736 13.194683 -8.483651 -6.976033 -2.507431 -0.202664 0.186012 0.000000 0.000000 0.000000 -4.745437 14.151050 1.364281 -65.035440 19.470916 -4.277362 -0.892319 -74.151225 -0.019987 15.079419 2.390675 0.315324 -0.218875 0.056079 0.000000 0.000000 0.000000 0.000000 0.000000 0.000000 0.000000 12.861321 -2.241323 -0.651072 68.387114 15.448372 26.418883 0.272647 84.555192 0.041948 7.073204 4.970457 0.336688 -0.088996 -0.392273 -0.000000 0.000000 0.000000 0.000000 0.000000 0.000000 0.000000 
-2.645723 16.704001 -1.836979 17.780864 72.155825 37.162263 -6.845049 -1.275778 -5.869887 -2.009700 -0.940117 -4.018965 -6.140108 -1.065126 0.306367 13.090221 -8.175072 -6.829014 -2.591532 -0.210486 0.219872 0.000000 0.000000 0.000000 -5.231583 14.307458 1.389280 -64.294282 18.118934 -4.018382 -0.992193 -72.396594 -0.019343 15.613654 2.566758 0.351876 -0.218955 0.048922 0.000000 0.000000 0.000000 0.000000 0.000000 0.000000 0.000000 13.101419 -2.003870 -0.860543 69.859190 15.175983 24.474033 0.408682 82.438099 0.035458 5.870053 4.915114 0.276237 -0.068271 -0.387320 -0.000000 0.000000 0.000000 0.000000 0.000000 0.000000 0.000000 
-2.530307 16.724319 -1.815881 17.531530 71.355989 36.860333 -6.955579 -1.219423 -5.803015 -2.061325 -0.870232 -4.013393 -6.271319 -0.993520 0.286615 12.954624 -7.897165 -6.687717 -2.674308 -0.218032 0.252040 0.000000 0.000000 0.000000 -5.694297 14.458476 1.400687 -63.677971 16.627891 -3.745330 -1.100551 -70.523774 -0.018485 15.964586 2.672806 0.375515 -0.216821 0.043194 0.000000 0.000000 0.000000 0.000000 0.000000 0.000000 0.000000 13.321363 -1.809507 -1.067350 71.392126 14.954155 22.460373 0.528934 80.224014 0.026938 4.276954 4.773504 0.195688 -0.042804 -0.381446 -0.000000 0.000000 0.000000 0.000000 0.000000 0.000000 0.000000 
-2.418334 16.756074 -1.797144 17.004927 70.514256 36.245345 -6.979137 -1.138851 -5.699844 -2.095240 -0.782609 -3.997997 -6.390695 -0.903051 0.277510 12.804781 -7.660698 -6.557393 -2.754478 -0.225146 0.281201 0.000000 0.000000 0.000000 -6.104727 14.594827 1.397527 -63.229067 15.057354 -3.486001 -1.213180 -68.596882 -0.017543 16.133916 2.703922 0.384346 -0.212973 0.039101 0.000000 0.000000 0.000000 0.000000 0.000000 0.000000 0.000000 13.534012 -1.669674 -1.261479 72.911624 14.802048 20.455790 0.624088 77.996947 0.016235 2.269743 4.537849 0.099231 -0.012733 -0.374776 -0.000000 0.000000 0.000000 0.000000 0.000000 0.000000 0.000000 
-2.308620 16.797173 -1.781119 16.233459 69.651433 35.342969 -6.908676 -1.041396 -5.558946 -2.109049 -0.685611 -3.973759 -6.496187 -0.802209 0.273539 12.652600 -7.463066 -6.435084 -2.830388 -0.231773 0.308481 0.000000 0.000000 0.000000 -6.445411 14.684568 1.380735 -62.973212 13.502736 -3.270778 -1.323674 -66.706061 -0.016633 16.135917 2.666226 0.379174 -0.207946 0.036658 0.000000 0.000000 0.000000 0.000000 0.000000 0.000000 0.000000 13.737890 -1.581504 -1.433866 74.355109 14.706730 18.537739 0.687734 75.841765 0.003392 -0.136725 4.206121 -0.004943 0.021336 -0.367284 0.000000 0.000000 0.000000 0.000000 0.000000 0.000000 0.000000 
-2.200138 16.845199 -1.767541 15.297439 68.788712 34.229255 -6.758728 -0.939909 -5.379709 -2.104448 -0.591090 -3.939351 -6.586027 -0.702851 0.278259 12.517127 -7.316458 -6.325561 -2.900151 -0.237722 0.332627 0.000000 0.000000 0.000000 -6.684726 14.725767 1.351008 -62.928224 12.011756 -3.099702 -1.426871 -64.914764 -0.015890 15.998841 2.568040 0.361902 -0.202394 0.035968 0.000000 0.000000 0.000000 0.000000 0.000000 0.000000 0.000000 13.943274 -1.558582 -1.578893 75.664716 14.668731 16.810634 0.718352 73.831022 -0.011298 -2.894609 3.779673 -0.105242 0.058706 -0.358738 -0.000000 0.000000 0.000000 0.000000 0.000000 0.000000 0.000000 
-2.091985 16.897790 -1.756010 14.258548 67.948945 32.968699 -6.539254 -0.846645 -5.168281 -2.082376 -0.510677 -3.896388 -6.659428 -0.616890 0.289192 12.410615 -7.219339 -6.226611 -2.961767 -0.242900 0.354442 0.000000 0.000000 0.000000 -6.806487 14.703853 1.310880 -63.092137 10.646442 -2.969385 -1.517076 -63.295747 -0.015404 15.759537 2.424532 0.336037 -0.196869 0.036984 0.000000 0.000000 0.000000 0.000000 0.000000 0.000000 0.000000 14.147032 -1.599474 -1.693663 76.803916 14.661844 15.358445 0.718548 72.025699 -0.027154 -5.898318 3.267642 -0.187964 0.097941 -0.348887 0.000000 0.000000 0.000000 0.000000 0.000000 0.000000 0.000000 
-1.983341 16.952683 -1.745897 13.172035 67.153796 31.627465 -6.261804 -0.773430 -4.937846 -2.044186 -0.455374 -3.848907 -6.716013 -0.555885 0.299898 12.339428 -7.165277 -6.131064 -3.013492 -0.247314 0.376199 0.000000 0.000000 0.000000 -6.805464 14.589120 1.263785 -63.445759 9.480485 -2.874966 -1.588499 -61.926683 -0.015223 15.458729 2.255263 0.305880 -0.191753 0.039545 0.000000 0.000000 0.000000 0.000000 0.000000 0.000000 0.000000 14.339158 -1.697954 -1.776958 77.756710 14.649996 14.242536 0.694791 70.465549 -0.043141 -8.992141 2.687666 -0.240013 0.137029 -0.337617 0.000000 0.000000 0.000000 0.000000 0.000000 0.000000 0.000000 
-1.873801 17.007994 -1.736392 12.095155 66.422729 30.273518 -5.946696 -0.732384 -4.699305 -1.993054 -0.435506 -3.798292 -6.755809 -0.530383 0.312488 12.313311 -7.152301 -6.039711 -3.054325 -0.250886 0.397675 0.000000 0.000000 0.000000 -6.675163 14.399666 1.212755 -63.961010 8.509679 -2.777240 -1.639706 -60.833839 -0.015396 15.138598 2.074307 0.274535 -0.187466 0.043615 0.000000 0.000000 0.000000 0.000000 0.000000 0.000000 0.000000 14.522486 -1.850408 -1.833369 78.509038 14.612337 13.514539 0.655330 69.177395 -0.058128 -12.006716 2.058961 -0.252683 0.173977 -0.325015 0.000000 0.000000 0.000000 0.000000 0.000000 0.000000 0.000000 
-1.763088 17.062244 -1.726695 11.062483 65.770754 28.959383 -5.607473 -0.731482 -4.471132 -1.931114 -0.457941 -3.749530 -6.779061 -0.547799 0.321028 12.332162 -7.179982 -5.946333 -3.084021 -0.253727 0.420862 0.000000 0.000000 0.000000 -6.431382 14.111151 1.160160 -64.591486 7.775853 -2.657846 -1.668207 -60.066065 -0.015908 14.834810 1.898124 0.245102 -0.184140 0.048942 0.000000 0.000000 0.000000 0.000000 0.000000 0.000000 0.000000 14.692203 -2.055332 -1.865603 79.065487 14.530214 13.198302 0.609393 68.158760 -0.071044 -14.759620 1.412685 -0.224766 0.206806 -0.311536 0.000000 0.000000 0.000000 0.000000 0.000000 0.000000 0.000000 
-1.651325 17.114412 -1.716056 10.100475 65.206689 27.725322 -5.260805 -0.776140 -4.264791 -1.861535 -0.526642 -3.704779 -6.787212 -0.612236 0.325471 12.398410 -7.233085 -5.849713 -3.103945 -0.255949 0.445950 0.000000 0.000000 0.000000 -6.085062 13.752683 1.109007 -65.291624 7.237738 -2.469390 -1.676669 -59.609296 -0.016767 14.577452 1.732634 0.218484 -0.181988 0.055445 0.000000 0.000000 0.000000 0.000000 0.000000 0.000000 0.000000 14.855737 -2.292381 -1.881784 79.425976 14.382755 13.277783 0.563683 67.415093 -0.081130 -17.085919 0.780278 -0.162456 0.233911 -0.297894 0.000000 0.000000 0.000000 0.000000 0.000000 0.000000 0.000000 
-1.538696 17.163923 -1.703909 9.219805 64.731709 26.597919 -4.916885 -0.867086 -4.094453 -1.786541 -0.641606 -3.667366 -6.781789 -0.723910 0.323605 12.508473 -7.320951 -5.749186 -3.116099 -0.257746 0.473244 0.000000 0.000000 0.000000 -5.665537 13.314915 1.058969 -66.005925 6.893783 -2.190445 -1.666293 -59.469579 -0.017932 14.383559 1.583478 0.195581 -0.180977 0.062866 0.000000 0.000000 0.000000 0.000000 0.000000 0.000000 0.000000 15.022025 -2.568424 -1.885000 79.598715 14.181489 13.741095 0.524854 66.917741 -0.087943 -18.847354 0.205712 -0.080846 0.254369 -0.284955 0.000000 0.000000 0.000000 0.000000 0.000000 0.000000 0.000000 
-1.425657 17.210537 -1.689891 8.424093 64.339799 25.591488 -4.583768 -1.001236 -3.967337 -1.708360 -0.799207 -3.638563 -6.765206 -0.879154 0.316343 12.658545 -7.449476 -5.647341 -3.123499 -0.259320 0.501946 0.000000 0.000000 0.000000 -5.200258 12.808830 1.009200 -66.684197 6.707357 -1.796033 -1.640362 -59.621715 -0.019369 14.260070 1.449474 0.175991 -0.181062 0.071023 0.000000 0.000000 0.000000 0.000000 0.000000 0.000000 0.000000 15.205925 -2.885557 -1.878496 79.590558 13.944173 14.553058 0.497332 66.639005 -0.091322 -19.936378 -0.263119 -0.000234 0.267621 -0.273628 0.000000 0.000000 0.000000 0.000000 0.000000 0.000000 0.000000 
-1.312725 17.254206 -1.673967 7.707044 64.017152 24.704538 -4.265811 -1.172030 -3.884762 -1.628886 -0.992653 -3.618942 -6.740846 -1.071069 0.303267 12.842283 -7.599843 -5.543890 -3.129495 -0.260904 0.531858 0.000000 0.000000 0.000000 -4.710160 12.260988 0.960776 -67.286801 6.618702 -1.260425 -1.603819 -60.011207 -0.021039 14.204540 1.322627 0.158215 -0.182189 0.079831 0.000000 0.000000 0.000000 0.000000 0.000000 0.000000 0.000000 15.416322 -3.218808 -1.865956 79.414902 13.667082 15.626988 0.482837 66.566846 -0.091242 -20.263323 -0.572566 0.057381 0.272936 -0.264901 0.000000 0.000000 0.000000 0.000000 0.000000 0.000000 0.000000 
-1.200456 17.295083 -1.656225 7.059114 63.745022 23.927794 -3.963002 -1.369833 -3.844179 -1.549365 -1.212434 -3.608005 -6.712147 -1.289954 0.285609 13.051155 -7.770420 -5.441579 -3.137045 -0.262671 0.562044 0.000000 0.000000 0.000000 -4.217639 11.683453 0.912707 -67.779849 6.582907 -0.574588 -1.560326 -60.591477 -0.022895 14.202943 1.195719 0.141051 -0.184180 0.089171 0.000000 0.000000 0.000000 0.000000 0.000000 0.000000 0.000000 15.660621 -3.562715 -1.846565 79.089953 13.366391 16.886583 0.482983 66.674097 -0.087724 -19.779185 -0.671374 0.074394 0.269746 -0.259532 0.000000 0.000000 0.000000 0.000000 0.000000 0.000000 0.000000 
-1.089226 17.333269 -1.636949 6.470915 63.500891 23.249093 -3.674061 -1.583663 -3.839768 -1.470842 -1.447766 -3.603396 -6.682262 -1.524682 0.269535 13.277260 -7.996809 -5.350391 -3.148500 -0.264678 0.589724 0.000000 0.000000 0.000000 -3.748573 11.068743 0.859974 -68.135055 6.577834 0.248460 -1.511498 -61.335026 -0.024856 14.233397 1.065049 0.123698 -0.186716 0.098852 0.000000 0.000000 0.000000 0.000000 0.000000 0.000000 0.000000 15.950598 -3.954272 -1.813580 78.634073 13.101628 18.307316 0.500374 66.908947 -0.080831 -18.491090 -0.529213 0.046500 0.257913 -0.257712 0.000000 0.000000 0.000000 0.000000 0.000000 0.000000 0.000000 
